<?xml version="1.0" encoding="UTF-8"?>
<svg width="400px" height="400px" viewBox="0 0 400 400" version="1.1" xmlns="http://www.w3.org/2000/svg" xmlns:xlink="http://www.w3.org/1999/xlink">
    <style>
        #og {
            fill: #0A1521;
        }

        @media (prefers-color-scheme: dark) {
            #og {
                fill: #E0EAF5
            }
        }
    </style>
    <g id="Artboard" stroke="none" stroke-width="1" fill="none" fill-rule="evenodd">
        <g id="Group" transform="translate(41.000000, 17.000000)" fill-rule="nonzero">
            <path d="M0.296875,178.429688 C0.296875,169.289017 1.62498672,160.793008 4.28125,152.941406 C6.93751328,145.089804 10.7460689,138.273466 15.7070312,132.492188 C20.6679936,126.710909 26.7030895,122.160173 33.8125,118.839844 C40.9219105,115.519515 48.929643,113.859375 57.8359375,113.859375 C66.8203574,113.859375 74.886683,115.519515 82.0351562,118.839844 C89.1836295,122.160173 95.2382564,126.710909 100.199219,132.492188 C105.160181,138.273466 108.968737,145.089804 111.625,152.941406 C114.281263,160.793008 115.609375,169.289017 115.609375,178.429688 L115.609375,181.007812 C115.609375,190.148483 114.281263,198.624961 111.625,206.4375 C108.968737,214.250039 105.160181,221.046846 100.199219,226.828125 C95.2382564,232.609404 89.2031605,237.140609 82.09375,240.421875 C74.9843395,243.703141 66.976607,245.34375 58.0703125,245.34375 C49.0858926,245.34375 41.019567,243.703141 33.8710938,240.421875 C26.7226205,237.140609 20.6679936,232.609404 15.7070312,226.828125 C10.7460689,221.046846 6.93751328,214.250039 4.28125,206.4375 C1.62498672,198.624961 0.296875,190.148483 0.296875,181.007812 L0.296875,178.429688 Z M21.9765625,181.007812 C21.9765625,187.257844 22.7187426,193.214815 24.203125,198.878906 C25.6875074,204.542997 27.9335787,209.523416 30.9414062,213.820312 C33.9492338,218.117209 37.7187273,221.515613 42.25,224.015625 C46.7812727,226.515637 52.0546574,227.765625 58.0703125,227.765625 C64.0078422,227.765625 69.2226338,226.515637 73.7148438,224.015625 C78.2070537,221.515613 81.9570162,218.117209 84.9648438,213.820312 C87.9726713,209.523416 90.2187426,204.542997 91.703125,198.878906 C93.1875074,193.214815 93.9296875,187.257844 93.9296875,181.007812 L93.9296875,178.429688 C93.9296875,172.257782 93.1679764,166.339872 91.6445312,160.675781 C90.1210861,155.01169 87.8554838,150.031271 84.8476562,145.734375 C81.8398287,141.437479 78.0898662,138.019544 73.5976562,135.480469 C69.1054463,132.941394 63.8515926,131.671875 57.8359375,131.671875 C51.8202824,131.671875 46.5859598,132.941394 42.1328125,135.480469 C37.6796652,138.019544 33.9492338,141.437479 30.9414062,145.734375 C27.9335787,150.031271 25.6875074,155.01169 24.203125,160.675781 C22.7187426,166.339872 21.9765625,172.257782 21.9765625,178.429688 L21.9765625,181.007812 Z M197.054688,113.859375 C204.867227,113.859375 211.722627,115.24608 217.621094,118.019531 C223.519561,120.792983 228.539042,124.796849 232.679688,130.03125 L233.734375,116.203125 L253.421875,116.203125 L253.421875,240.304688 C253.421875,248.664104 252.113294,256.085905 249.496094,262.570312 C246.878893,269.05472 243.207055,274.562477 238.480469,279.09375 C233.753883,283.625023 228.109408,287.062488 221.546875,289.40625 C214.984342,291.750012 207.71879,292.921875 199.75,292.921875 C196.468734,292.921875 192.718771,292.550785 188.5,291.808594 C184.281229,291.066403 180.003928,289.855477 175.667969,288.175781 C171.33201,286.496085 167.152364,284.250014 163.128906,281.4375 C159.105449,278.624986 155.648452,275.148458 152.757812,271.007812 L164.007812,258 C166.664076,261.203141 169.398423,263.917958 172.210938,266.144531 C175.023452,268.371105 177.874986,270.148431 180.765625,271.476562 C183.656264,272.804694 186.546861,273.761716 189.4375,274.347656 C192.328139,274.933597 195.218736,275.226562 198.109375,275.226562 C203.265651,275.226562 207.914042,274.484382 212.054688,273 C216.195333,271.515618 219.730454,269.347671 222.660156,266.496094 C225.589858,263.644517 227.83593,260.109396 229.398438,255.890625 C230.960945,251.671854 231.742188,246.828152 231.742188,241.359375 L231.742188,230.460938 C227.523416,235.304712 222.542997,238.996081 216.800781,241.535156 C211.058565,244.074231 204.398475,245.34375 196.820312,245.34375 C189.085899,245.34375 182.093781,243.703141 175.84375,240.421875 C169.593719,237.140609 164.300803,232.609404 159.964844,226.828125 C155.628885,221.046846 152.289074,214.230508 149.945312,206.378906 C147.601551,198.527304 146.429688,190.070358 146.429688,181.007812 L146.429688,178.546875 C146.429688,169.093703 147.58202,160.402383 149.886719,152.472656 C152.191418,144.542929 155.531228,137.726591 159.90625,132.023438 C164.281272,126.320284 169.593719,121.867204 175.84375,118.664062 C182.093781,115.460921 189.164023,113.859375 197.054688,113.859375 Z M202.445312,132.257812 C196.351532,132.257812 191.13674,133.5078 186.800781,136.007812 C182.464822,138.507825 178.91017,141.886697 176.136719,146.144531 C173.363267,150.402365 171.332038,155.324191 170.042969,160.910156 C168.7539,166.496122 168.109375,172.374969 168.109375,178.546875 L168.109375,178.546875 L168.109375,181.007812 C168.109375,187.179718 168.7539,193.039035 170.042969,198.585938 C171.332038,204.13284 173.363267,209.015604 176.136719,213.234375 C178.91017,217.453146 182.445291,220.792956 186.742188,223.253906 C191.039084,225.714856 196.195282,226.945312 202.210938,226.945312 C205.960956,226.945312 209.339829,226.496098 212.347656,225.597656 C215.355484,224.699214 218.050769,223.429696 220.433594,221.789062 C222.816418,220.148429 224.945303,218.195324 226.820312,215.929688 C228.695322,213.664051 230.33593,211.164076 231.742188,208.429688 L231.742188,208.429688 L231.742188,150.304688 C230.33593,147.648424 228.695322,145.226573 226.820312,143.039062 C224.945303,140.851552 222.796887,138.957039 220.375,137.355469 C217.953113,135.753898 215.257827,134.503911 212.289062,133.605469 C209.320298,132.707027 206.03908,132.257812 202.445312,132.257812 Z" id="og" fill="#0A1521"></path>
            <g id="Group-2" transform="translate(252.000000, 0.000000)" fill="#F45D01">
                <path d="M38.75,217.625 C38.75,216.062492 38.9973934,214.604173 39.4921875,213.25 C39.9869816,211.895827 40.7031203,210.710943 41.640625,209.695312 C42.5781297,208.679682 43.75,207.88542 45.15625,207.3125 C46.562507,206.73958 48.2031156,206.453125 50.078125,206.453125 C51.9531344,206.453125 53.6067637,206.73958 55.0390625,207.3125 C56.4713613,207.88542 57.669266,208.679682 58.6328125,209.695312 C59.596359,210.710943 60.3255184,211.895827 60.8203125,213.25 C61.3151066,214.604173 61.5625,216.062492 61.5625,217.625 C61.5625,219.135424 61.3151066,220.554681 60.8203125,221.882812 C60.3255184,223.210944 59.596359,224.369787 58.6328125,225.359375 C57.669266,226.348963 56.4713613,227.117185 55.0390625,227.664062 C53.6067637,228.21094 51.9531344,228.484375 50.078125,228.484375 C48.2031156,228.484375 46.562507,228.21094 45.15625,227.664062 C43.75,227.117185 42.5781297,226.348963 41.640625,225.359375 C40.7031203,224.369787 39.9869816,223.210944 39.4921875,221.882812 C38.9973934,220.554681 38.75,219.135424 38.75,217.625 Z" id="."></path>
                <path d="M38.75,178.625 C38.75,177.062492 38.9973934,175.604173 39.4921875,174.25 C39.9869816,172.895827 40.7031203,171.710943 41.640625,170.695312 C42.5781297,169.679682 43.75,168.88542 45.15625,168.3125 C46.562507,167.73958 48.2031156,167.453125 50.078125,167.453125 C51.9531344,167.453125 53.6067637,167.73958 55.0390625,168.3125 C56.4713613,168.88542 57.669266,169.679682 58.6328125,170.695312 C59.596359,171.710943 60.3255184,172.895827 60.8203125,174.25 C61.3151066,175.604173 61.5625,177.062492 61.5625,178.625 C61.5625,180.135424 61.3151066,181.554681 60.8203125,182.882812 C60.3255184,184.210944 59.596359,185.369787 58.6328125,186.359375 C57.669266,187.348963 56.4713613,188.117185 55.0390625,188.664062 C53.6067637,189.21094 51.9531344,189.484375 50.078125,189.484375 C48.2031156,189.484375 46.562507,189.21094 45.15625,188.664062 C43.75,188.117185 42.5781297,187.348963 41.640625,186.359375 C40.7031203,185.369787 39.9869816,184.210944 39.4921875,182.882812 C38.9973934,181.554681 38.75,180.135424 38.75,178.625 Z" id="."></path>
                <path d="M38.75,138.625 C38.75,137.062492 38.9973934,135.604173 39.4921875,134.25 C39.9869816,132.895827 40.7031203,131.710943 41.640625,130.695312 C42.5781297,129.679682 43.75,128.88542 45.15625,128.3125 C46.562507,127.73958 48.2031156,127.453125 50.078125,127.453125 C51.9531344,127.453125 53.6067637,127.73958 55.0390625,128.3125 C56.4713613,128.88542 57.669266,129.679682 58.6328125,130.695312 C59.596359,131.710943 60.3255184,132.895827 60.8203125,134.25 C61.3151066,135.604173 61.5625,137.062492 61.5625,138.625 C61.5625,140.135424 61.3151066,141.554681 60.8203125,142.882812 C60.3255184,144.210944 59.596359,145.369787 58.6328125,146.359375 C57.669266,147.348963 56.4713613,148.117185 55.0390625,148.664062 C53.6067637,149.21094 51.9531344,149.484375 50.078125,149.484375 C48.2031156,149.484375 46.562507,149.21094 45.15625,148.664062 C43.75,148.117185 42.5781297,147.348963 41.640625,146.359375 C40.7031203,145.369787 39.9869816,144.210944 39.4921875,142.882812 C38.9973934,141.554681 38.75,140.135424 38.75,138.625 Z" id="."></path>
            </g>
        </g>
    </g>
</svg>
